<svg width="49" height="49" viewBox="0 0 49 49" fill="none" xmlns="http://www.w3.org/2000/svg">
<path d="M26.3448 29.2931H22.6853L21.9203 14.6398H27.1097L26.3448 29.2931ZM21.8604 34.4225C21.8604 33.5826 22.0853 32.9476 22.5353 32.5177C22.9852 32.0877 23.6401 31.8728 24.5 31.8728C25.3299 31.8728 25.9699 32.0927 26.4198 32.5327C26.8798 32.9726 27.1097 33.6026 27.1097 34.4225C27.1097 35.2124 26.8798 35.8373 26.4198 36.2972C25.9599 36.7472 25.3199 36.9722 24.5 36.9722C23.6601 36.9722 23.0102 36.7522 22.5503 36.3122C22.0903 35.8623 21.8604 35.2324 21.8604 34.4225Z" fill="#33BAEC"/>
<circle cx="24.5" cy="24.5" r="23" stroke="#33BAEC" stroke-width="3"/>
</svg>
