<svg width="131" height="181" viewBox="0 0 131 181" fill="none" xmlns="http://www.w3.org/2000/svg">
<path d="M79.099 129.174H51.72V155.739H79.099V129.174Z" fill="white"/>
<path fill-rule="evenodd" clip-rule="evenodd" d="M51.72 142.502L65.3627 129.174L79.0054 142.502L65.3627 155.831L51.72 142.502Z" stroke="#20305B" stroke-width="1.1082"/>
<path d="M79.3736 128.815H51.3521V156.099H79.3736V128.815Z" stroke="#20305B" stroke-width="0.4205" stroke-linejoin="round"/>
<path d="M115.598 129.174H88.2191V155.739H115.598V129.174Z" fill="white"/>
<path d="M115.873 128.815H87.8511V156.099H115.873V128.815Z" fill="#20305B" stroke="#20305B" stroke-width="0.4205"/>
<path d="M108.686 135.75H95.0436V149.078H108.686V135.75Z" fill="white"/>
<path d="M43.6106 129.174H16.2316V155.739H43.6106V129.174Z" fill="white"/>
<path d="M36.786 135.75H23.1433V149.078H36.786V135.75Z" fill="#20305B"/>
<path d="M43.9786 128.815H15.957V156.099H43.9786V128.815Z" stroke="#20305B" stroke-width="0.4205" stroke-linejoin="round"/>
<path fill-rule="evenodd" clip-rule="evenodd" d="M89.6039 44.1225C89.5104 44.1225 89.4168 44.0372 89.4168 43.9458L70.7087 3.24213C70.7087 3.15072 70.7087 3.0593 70.7087 2.97398C70.8023 2.88257 70.8896 2.88257 70.9832 2.88257L82.505 6.21614C82.5985 6.21614 82.6921 6.30146 82.6921 6.39287L89.6975 43.763V43.8544C89.7911 44.0372 89.6975 44.1225 89.6039 44.1225ZM71.5384 3.51028L89.0487 41.8737L82.4114 6.66102L71.5384 3.51028Z" fill="#17172F"/>
<path fill-rule="evenodd" clip-rule="evenodd" d="M89.604 61.1439C89.5104 61.1439 89.5104 61.0525 89.5104 61.0525V44.1226C89.5104 44.0372 89.604 44.0372 89.604 44.0372C89.6975 44.0372 89.6975 44.1226 89.6975 44.1226V61.0525C89.6975 61.1439 89.604 61.1439 89.604 61.1439Z" fill="#20305B"/>
<path fill-rule="evenodd" clip-rule="evenodd" d="M30.9784 86.5387H60.0167C60.1103 86.5387 60.4783 86.5387 60.5657 86.5387V73.4786H51.4456L77.7142 17.7404L89.604 43.7629L82.5051 6.39285L70.9833 3.1507V3.24211L70.7088 3.1507L47.8462 43.4948V43.2267V55.4701L39.7367 73.3933H30.9784C30.9784 73.4786 30.9784 86.3558 30.9784 86.5387ZM41.5832 73.4786L47.8462 59.6142V73.4786H41.5832ZM51.0775 70.3279V45.0245L72.6426 6.75241L76.791 15.7598L51.0775 70.3279Z" fill="#20305B"/>
<path fill-rule="evenodd" clip-rule="evenodd" d="M54.1154 86.4473H41.9512L30.1487 107.338V112.561H36.6924V107.162H58.819V112.561H66.1924V107.789L54.3026 86.5387L54.1154 86.4473Z" fill="#20305B"/>
<path fill-rule="evenodd" clip-rule="evenodd" d="M89.6975 97.2524C91.5378 97.161 101.681 88.9703 101.681 79.061C101.681 69.1578 91.4442 60.961 89.6975 60.961H89.604H89.5104C87.6702 60.961 77.4397 69.1578 77.4397 79.1524C77.4397 88.9703 87.3895 97.0757 89.4168 97.3438C87.6702 97.3438 86.6534 98.4225 85.5492 99.5926C84.2579 100.946 82.0434 103.828 82.0434 108.149C82.0434 108.332 82.0434 108.509 82.0434 108.691V109.228L82.2306 108.868C83.3347 107.247 86.0982 105.449 89.5104 105.449H89.604C92.9226 105.449 95.6861 107.247 96.7965 108.868L96.9774 109.228V108.691C96.9774 108.509 96.9774 108.332 96.9774 108.24C96.9774 103.92 94.7629 101.037 93.4778 99.684C92.461 98.3372 91.2633 97.3438 89.6975 97.2524Z" fill="#20305B"/>
<path fill-rule="evenodd" clip-rule="evenodd" d="M17.2483 169.403C17.8908 169.677 18.8141 170.036 19.7373 170.036C20.7479 170.036 21.3031 169.585 21.3031 168.952C21.3031 168.324 20.8414 167.964 19.6437 167.605C17.9844 167.062 16.8803 166.16 16.8803 164.722C16.8803 163.101 18.2589 161.748 20.6543 161.748C21.7647 161.748 22.5944 162.022 23.2369 162.199L22.7753 164.003C22.4072 163.82 21.6711 163.552 20.6543 163.552C19.6437 163.552 19.1821 164.003 19.1821 164.454C19.1821 165.082 19.7373 165.35 21.0286 165.801C22.7753 166.435 23.6049 167.331 23.6049 168.683C23.6049 170.305 22.3136 171.657 19.5502 171.657C18.446 171.657 17.3356 171.383 16.6931 171.024L17.2483 169.403Z" fill="#20305B"/>
<path fill-rule="evenodd" clip-rule="evenodd" d="M31.0719 167.605H27.3852V169.945H31.44V171.743H25.0834V162.022H31.2591V163.82H27.3852V165.801H31.0719V167.605Z" fill="#20305B"/>
<path fill-rule="evenodd" clip-rule="evenodd" d="M35.3138 169.134L34.5777 171.657H32.2697L35.3138 161.931H38.2645L41.3024 171.657H38.907L38.1709 169.134H35.3138ZM37.8964 167.513L37.2477 165.441C37.0667 164.899 36.8796 164.18 36.786 163.552C36.6051 164.088 36.5116 164.899 36.3244 165.441L35.7755 167.513H37.8964Z" fill="#20305B"/>
<path fill-rule="evenodd" clip-rule="evenodd" d="M45.6378 161.931H51.72V163.729H47.9397V165.984H51.5328V167.781H47.9397V171.657H45.6378V161.931Z" fill="#20305B"/>
<path fill-rule="evenodd" clip-rule="evenodd" d="M55.6812 161.931V171.657H53.4729V161.931H55.6812Z" fill="#20305B"/>
<path fill-rule="evenodd" clip-rule="evenodd" d="M57.7085 169.403C58.3573 169.677 59.2805 170.036 60.1975 170.036C61.2143 170.036 61.7695 169.585 61.7695 168.952C61.7695 168.324 61.3079 167.964 60.1102 167.605C58.4508 167.062 57.3405 166.16 57.3405 164.722C57.3405 163.101 58.7253 161.748 61.1207 161.748C62.2249 161.748 63.0545 162.022 63.7033 162.199L63.2417 164.003C62.8736 163.82 62.1375 163.552 61.1207 163.552C60.1102 163.552 59.6485 164.003 59.6485 164.454C59.6485 165.082 60.1975 165.35 61.4888 165.801C63.2417 166.435 64.0714 167.331 64.0714 168.683C64.0714 170.305 62.7801 171.657 60.0166 171.657C58.9125 171.657 57.8021 171.383 57.1595 171.024L57.7085 169.403Z" fill="#20305B"/>
<path fill-rule="evenodd" clip-rule="evenodd" d="M67.8517 161.931V165.624H71.5384V161.931H73.7467V171.657H71.5384V167.605H67.8517V171.657H65.6372V161.931H67.8517Z" fill="#20305B"/>
<path fill-rule="evenodd" clip-rule="evenodd" d="M79.1864 162.108C79.9225 162.022 80.8457 161.931 82.2306 161.931C83.6155 161.931 84.626 162.199 85.2685 162.742C85.9173 163.192 86.3789 164.003 86.3789 164.99C86.3789 165.984 86.0109 166.794 85.4557 167.331C84.7196 168.056 83.5219 168.324 82.2306 168.324C81.9561 168.324 81.6754 168.324 81.4945 168.324V171.834H79.28V162.108H79.1864ZM81.4009 166.52C81.5818 166.52 81.8625 166.611 82.137 166.611C83.3347 166.611 84.0708 165.984 84.0708 164.99C84.0708 164.088 83.4283 163.552 82.3242 163.552C81.8625 163.552 81.5818 163.552 81.4009 163.643V166.52Z" fill="#20305B"/>
<path fill-rule="evenodd" clip-rule="evenodd" d="M96.8838 166.703C96.8838 169.854 94.95 171.834 91.9994 171.834C89.0488 171.834 87.3021 169.677 87.3021 166.886C87.3021 164.003 89.2359 161.748 92.1866 161.748C95.2245 161.748 96.8838 164.003 96.8838 166.703ZM89.6976 166.886C89.6976 168.775 90.6208 170.122 92.093 170.122C93.5652 170.122 94.4884 168.683 94.4884 166.794C94.4884 165.082 93.6587 163.552 92.093 163.552C90.6208 163.552 89.6976 164.99 89.6976 166.886Z" fill="#20305B"/>
<path fill-rule="evenodd" clip-rule="evenodd" d="M98.3623 162.108C99.0984 162.022 100.203 161.931 101.313 161.931C102.785 161.931 103.796 162.108 104.538 162.65C105.087 163.101 105.455 163.82 105.455 164.722C105.455 165.984 104.538 166.794 103.708 167.154C104.444 167.422 104.812 168.056 105 168.952C105.274 170.036 105.642 171.298 105.829 171.657H103.521C103.34 171.383 103.153 170.573 102.785 169.403C102.511 168.232 102.049 167.873 101.219 167.873H100.571V171.657H98.3623V162.108ZM100.571 166.252H101.494C102.598 166.252 103.247 165.709 103.247 164.814C103.247 163.912 102.598 163.461 101.587 163.461C101.032 163.461 100.758 163.461 100.571 163.552V166.252Z" fill="#20305B"/>
<path fill-rule="evenodd" clip-rule="evenodd" d="M109.054 163.82H106.378V162.022H114.032V163.82H111.356V171.657H109.148V163.82H109.054Z" fill="#20305B"/>
<path d="M17.9345 124.512H19.126V119.094H21.0099V118.119H16.0693V119.094H17.9345V124.512ZM33.4799 120.728H31.0096V119.076H33.6233V118.119H29.8181V124.512H33.7668V123.555H31.0096V121.672H33.4799V120.728ZM42.862 124.512H44.041V121.886H44.646C45.326 121.904 45.6254 122.166 45.8188 123.001C45.9935 123.799 46.1619 124.323 46.2555 124.512H47.4781C47.3534 124.262 47.1787 123.525 46.9666 122.727C46.8107 122.111 46.53 121.666 46.0559 121.495V121.465C46.6734 121.258 47.2473 120.697 47.2473 119.874C47.2473 119.32 47.0415 118.875 46.6859 118.582C46.2368 118.223 45.6067 118.07 44.6648 118.07C43.9786 118.07 43.3173 118.125 42.862 118.211V124.512ZM44.041 119.009C44.1595 118.979 44.4028 118.954 44.7833 118.954C45.5568 118.954 46.0559 119.283 46.0559 119.978C46.0559 120.612 45.5568 121.032 44.7521 121.032H44.041V119.009ZM62.0753 124.512H63.2418L62.8613 118.119H61.308L60.4035 120.679C60.1539 121.428 59.9294 122.215 59.7547 122.909H59.7235C59.5613 122.196 59.3555 121.441 59.1247 120.691L58.27 118.119H56.698L56.2614 124.512H57.378L57.5215 121.94C57.5714 121.069 57.6088 120.051 57.64 119.216H57.6587C57.8334 120.015 58.0642 120.886 58.32 121.703L59.1933 124.433H60.104L61.0647 121.666C61.3579 120.862 61.6324 119.996 61.8445 119.216H61.8694C61.8632 120.082 61.9131 121.075 61.9505 121.904L62.0753 124.512ZM72.4929 118.119V124.512H73.6906V118.119H72.4929ZM84.1956 124.512V122.227C84.1956 121.172 84.1768 120.325 84.1269 119.503L84.1706 119.49C84.4888 120.216 84.9129 120.99 85.3309 121.697L87.0401 124.512H88.2878V118.119H87.1774V120.35C87.1774 121.325 87.1961 122.148 87.2834 123.001H87.2647C86.9653 122.312 86.5785 121.569 86.1481 120.862L84.4576 118.119H83.0914V124.512H84.1956ZM101.082 122.702L101.675 124.512H102.966L100.839 118.119H99.3167L97.2207 124.512H98.4496L99.0173 122.702H101.082ZM99.2107 121.818L99.7159 120.24C99.822 119.862 99.928 119.417 100.028 119.046H100.047C100.14 119.417 100.246 119.856 100.377 120.24L100.889 121.818H99.2107ZM111.924 124.512H115.804V123.537H113.115V118.119H111.924V124.512Z" fill="#20305B"/>
<path fill-rule="evenodd" clip-rule="evenodd" d="M51.72 142.46L65.4064 129.174L79.0054 142.502L65.3627 155.831L51.72 142.46Z" fill="#20305B"/>
</svg>
