<svg width="19" height="18" viewBox="0 0 19 18" fill="none" xmlns="http://www.w3.org/2000/svg">
<path d="M9.5 0C6.73762 0 4.49023 2.1291 4.49023 4.74609C4.49023 7.36309 6.73762 9.49219 9.5 9.49219C12.2624 9.49219 14.5098 7.36309 14.5098 4.74609C14.5098 2.1291 12.2624 0 9.5 0Z" fill="white"/>
<path d="M15.7331 12.5928C14.3616 11.2734 12.5433 10.5469 10.6133 10.5469H8.38672C6.45673 10.5469 4.63845 11.2734 3.26689 12.5928C1.90204 13.9057 1.15039 15.6387 1.15039 17.4727C1.15039 17.7639 1.39962 18 1.70703 18H17.293C17.6004 18 17.8496 17.7639 17.8496 17.4727C17.8496 15.6387 17.098 13.9057 15.7331 12.5928Z" fill="white"/>
</svg>
